<?xml version="1.0" standalone="no"?>
<!DOCTYPE svg PUBLIC "-//W3C//DTD SVG 20010904//EN"
 "http://www.w3.org/TR/2001/REC-SVG-20010904/DTD/svg10.dtd">
<svg version="1.0" xmlns="http://www.w3.org/2000/svg"
 width="700.000000pt" height="700.000000pt" viewBox="0 0 700.000000 700.000000"
 preserveAspectRatio="xMidYMid meet">
<metadata>
Created by potrace 1.14, written by Peter Selinger 2001-2017
</metadata>
<g transform="translate(0.000000,700.000000) scale(0.100000,-0.100000)"
fill="#000000" stroke="none">
<path d="M220 3505 c0 -1922 3 -3495 6 -3495 4 0 295 289 649 643 l642 642 -1
780 -1 780 695 -2 695 -2 655 649 655 649 -1344 0 c-739 0 -1346 3 -1349 6 -3
3 -6 350 -6 772 l-1 768 1979 -1 1979 -1 653 654 653 653 -3279 0 -3280 0 0
-3495z"/>
</g>
</svg>
